<?xml version="1.0" encoding="UTF-8" standalone="no"?>
<!-- Created with Inkscape (http://www.inkscape.org/) -->

<svg
   width="96.591393mm"
   height="52.40358mm"
   viewBox="0 0 96.591393 52.40358"
   version="1.1"
   id="svg5"
   inkscape:version="1.1.1 (3bf5ae0d25, 2021-09-20)"
   sodipodi:docname="drawing.svg"
   xmlns:inkscape="http://www.inkscape.org/namespaces/inkscape"
   xmlns:sodipodi="http://sodipodi.sourceforge.net/DTD/sodipodi-0.dtd"
   xmlns:xlink="http://www.w3.org/1999/xlink"
   xmlns="http://www.w3.org/2000/svg"
   xmlns:svg="http://www.w3.org/2000/svg">
  <sodipodi:namedview
     id="namedview7"
     pagecolor="#505050"
     bordercolor="#eeeeee"
     borderopacity="1"
     inkscape:pageshadow="0"
     inkscape:pageopacity="0"
     inkscape:pagecheckerboard="0"
     inkscape:document-units="mm"
     showgrid="false"
     inkscape:zoom="1.060799"
     inkscape:cx="101.3387"
     inkscape:cy="226.71589"
     inkscape:window-width="1920"
     inkscape:window-height="1027"
     inkscape:window-x="-8"
     inkscape:window-y="22"
     inkscape:window-maximized="1"
     inkscape:current-layer="layer3" />
  <defs
     id="defs2">
    <linearGradient
       id="linearGradient27136"
       inkscape:swatch="solid">
      <stop
         style="stop-color:#000000;stop-opacity:1;"
         offset="0"
         id="stop27134" />
    </linearGradient>
    <linearGradient
       inkscape:collect="always"
       id="linearGradient26702-0-7-4-3">
      <stop
         style="stop-color:#ec4e20;stop-opacity:1;"
         offset="0"
         id="stop26698" />
      <stop
         style="stop-color:#ec4e20;stop-opacity:0;"
         offset="1"
         id="stop26700" />
    </linearGradient>
    <linearGradient
       id="linearGradient26292"
       inkscape:swatch="solid">
      <stop
         style="stop-color:#000000;stop-opacity:1;"
         offset="0"
         id="stop26290" />
    </linearGradient>
    <rect
       x="98.653748"
       y="268.6315"
       width="101.32007"
       height="100.65349"
       id="rect2960" />
    <linearGradient
       inkscape:collect="always"
       xlink:href="#linearGradient26702-0-7-4-3"
       id="linearGradient26704"
       x1="108.64133"
       y1="61.287113"
       x2="91.357483"
       y2="85.890144"
       gradientUnits="userSpaceOnUse"
       gradientTransform="translate(28.433755,15.96281)" />
    <linearGradient
       inkscape:collect="always"
       xlink:href="#linearGradient26702-0-7-4-3"
       id="linearGradient27114"
       x1="29.618254"
       y1="79.577255"
       x2="109.64059"
       y2="79.577255"
       gradientUnits="userSpaceOnUse" />
    <linearGradient
       inkscape:collect="always"
       xlink:href="#linearGradient27136"
       id="linearGradient843"
       gradientUnits="userSpaceOnUse"
       gradientTransform="translate(30.223756,15.017413)"
       x1="29.912413"
       y1="79.577255"
       x2="109.34643"
       y2="79.577255" />
  </defs>
  <g
     inkscape:groupmode="layer"
     id="layer3"
     inkscape:label="Layer 2"
     style="display:inline"
     transform="translate(-56.374605,-72.047131)">
    <ellipse
       style="fill:url(#linearGradient26704);fill-opacity:1;stroke:none;stroke-width:0.3"
       id="path23840"
       cx="121.02579"
       cy="92.770111"
       rx="26.278503"
       ry="20.72298" />
    <path
       style="fill:#000000;fill-opacity:1;stroke:none;stroke-width:0.4;stroke-miterlimit:4;stroke-dasharray:none"
       id="path28346"
       d="m 60.725441,109.71163 c 1.758839,-0.28888 3.546565,-0.32612 5.324253,-0.38379 3.054646,-0.0958 6.110123,-0.0764 9.164132,0.0236 2.605058,0.0855 5.20645,0.24922 7.810405,0.3592 1.989272,0.11539 3.979026,0.21285 5.971024,0.26384 1.657437,0.0353 3.308442,0.18718 4.962033,0.29272 1.210593,0.0806 2.423943,0.10786 3.636851,0.12392 0.909346,0.0325 1.816388,0.10633 2.725151,0.15228 0.7033,0.0302 1.40734,0.0439 2.11126,0.0404 0.90204,-0.0122 1.80417,-0.008 2.70625,-0.005 0.88857,-0.0151 1.77469,5.3e-4 2.65998,0.0792 1.46707,0.15176 2.90482,0.47955 4.33027,0.84746 2.21535,0.58441 4.23976,1.66471 6.18616,2.84538 2.54216,1.61392 5.06851,3.26928 7.77774,4.59565 0.72003,0.3525 1.45591,0.67166 2.18386,1.00749 4.46184,1.87018 9.14633,3.25217 13.92511,4.03093 0.95452,0.15555 1.91782,0.25141 2.87673,0.37711 3.59533,0.11407 1.86206,0.11626 5.19978,0.0172 0,0 2.68957,-1.97249 2.68957,-1.97249 v 0 c -3.40276,0.20177 -1.64632,0.15985 -5.26984,0.10144 -0.96281,-0.11454 -1.93016,-0.19582 -2.88843,-0.34363 -4.73292,-0.73001 -9.35895,-2.12999 -13.73694,-4.05892 -0.70704,-0.34316 -1.42181,-0.67085 -2.12113,-1.02949 -2.64768,-1.35784 -5.11803,-3.02297 -7.56795,-4.70324 -0.36121,-0.23134 -0.71563,-0.47364 -1.08363,-0.69403 -1.59517,-0.95533 -3.31049,-1.73534 -5.08226,-2.29531 -1.40444,-0.39658 -2.81817,-0.76262 -4.26572,-0.96631 -0.88742,-0.10812 -1.77704,-0.14681 -2.671,-0.12169 -0.89714,0.004 -1.79437,0.01 -2.69147,-0.004 -0.70376,-0.007 -1.4077,-5.3e-4 -2.11129,-0.0222 -0.92152,-0.0281 -1.84114,-0.0902 -2.76157,-0.14144 -1.224791,-0.003 -2.449777,-0.0139 -3.673377,-0.0739 -1.669352,-0.0881 -3.335346,-0.23228 -5.006915,-0.27708 -2.009288,-0.0383 -4.017253,-0.11336 -6.024207,-0.21831 -2.629107,-0.0884 -5.2558,-0.23324 -7.885449,-0.30742 -3.043386,-0.0995 -6.087755,-0.10587 -9.132475,-0.0709 -1.699781,0.0189 -3.404933,0.0184 -5.098809,0.17586 0,0 -3.168097,2.35576 -3.168097,2.35576 z" />
    <ellipse
       style="fill:#000000;fill-opacity:1;stroke:none;stroke-width:0.4;stroke-miterlimit:4;stroke-dasharray:none"
       id="path28372"
       cx="133.63594"
       cy="112.08217"
       rx="1.8518409"
       ry="1.4109263" />
  </g>
  <g
     inkscape:label="Layer 1"
     inkscape:groupmode="layer"
     id="layer1"
     style="display:inline"
     transform="translate(-56.374605,-72.047131)">
    <text
       xml:space="preserve"
       transform="scale(0.26458333)"
       id="text2958"
       style="font-style:normal;font-weight:normal;font-size:40px;line-height:1.25;font-family:sans-serif;white-space:pre;shape-inside:url(#rect2960);fill:#000000;fill-opacity:1;stroke:none" />
    <text
       xml:space="preserve"
       style="font-style:normal;font-variant:normal;font-weight:normal;font-stretch:normal;font-size:23.5326px;line-height:1.25;font-family:Vivaldi;-inkscape-font-specification:Vivaldi;fill:#016fb9;fill-opacity:1;stroke:url(#linearGradient843);stroke-width:0.4;stroke-miterlimit:4;stroke-dasharray:none"
       x="62.629612"
       y="99.943512"
       id="text3736"
       transform="scale(0.94077503,1.0629534)"><tspan
         sodipodi:role="line"
         style="font-style:normal;font-variant:normal;font-weight:normal;font-stretch:normal;font-family:Vivaldi;-inkscape-font-specification:Vivaldi;fill:#016fb9;fill-opacity:1;stroke:url(#linearGradient843);stroke-width:0.4;stroke-miterlimit:4;stroke-dasharray:none"
         x="62.629612"
         y="99.943512"
         id="tspan4694">photoDot</tspan></text>
  </g>
</svg>
